<?xml version="1.0" encoding="utf-8"?>
<!-- Generator: Adobe Illustrator 15.1.0, SVG Export Plug-In . SVG Version: 6.00 Build 0)  -->
<!DOCTYPE svg PUBLIC "-//W3C//DTD SVG 1.1//EN" "http://www.w3.org/Graphics/SVG/1.1/DTD/svg11.dtd">
<svg version="1.1" id="Слой_1" xmlns="http://www.w3.org/2000/svg" xmlns:xlink="http://www.w3.org/1999/xlink" x="0px" y="0px"
	 width="47px" height="52.586px" viewBox="0 0 47 52.586" enable-background="new 0 0 47 52.586" xml:space="preserve">
<path d="M47.313,32.055c0-2.408-1.309-4.586-3.388-5.726c0.062-0.281,0.093-0.569,0.093-0.86c0-0.598-0.135-1.186-0.392-1.727
	c0.796-1.203,1.215-2.588,1.215-4.036c0-2.487-1.261-4.795-3.323-6.149c0.02-0.149,0.027-0.293,0.027-0.437
	c0-1.281-0.621-2.487-1.648-3.25c0-0.014,0-0.028,0-0.043c0-2.971-2.023-5.567-4.865-6.317C33.907,1.365,31.675,0,29.236,0
	c-2.493,0-4.664,1.401-5.769,3.457C22.366,1.401,20.569,0,18.076,0c-2.438,0-4.671,1.365-5.794,3.51
	C9.44,4.26,7.416,6.856,7.416,9.827c0,0.015,0,0.029,0,0.043c-1.027,0.763-1.648,1.969-1.648,3.25c0,0.144,0.01,0.287,0.028,0.437
	c-2.063,1.354-3.324,3.662-3.324,6.149c0,1.448,0.419,2.833,1.215,4.036c-0.257,0.541-0.391,1.129-0.391,1.727
	c0,0.291,0.031,0.579,0.092,0.86C1.31,27.469,0,29.646,0,32.055c0,2.877,1.896,5.379,4.563,6.225
	c-0.292,0.63-0.443,1.31-0.443,2.009c0,2.157,1.42,4.041,3.446,4.665c0.638,2.979,3.296,5.162,6.39,5.162
	c0.484,0,0.969-0.055,1.445-0.164c0.832,1.601,2.489,2.635,4.322,2.635c1.729,0,2.875-0.9,3.745-2.257
	c0.871,1.354,2.392,2.257,4.12,2.257c1.833,0,3.49-1.034,4.322-2.635c0.477,0.109,0.961,0.164,1.445,0.164
	c3.094,0,5.752-2.186,6.39-5.162c2.026-0.624,3.446-2.508,3.446-4.665c0-0.699-0.15-1.379-0.442-2.009
	C45.416,37.434,47.313,34.932,47.313,32.055z M19.724,51.04c-1.42,0-2.687-0.911-3.151-2.269c-0.066-0.193-0.207-0.354-0.392-0.443
	s-0.397-0.104-0.592-0.036c-0.535,0.185-1.084,0.278-1.633,0.278c-2.5,0-4.627-1.867-4.948-4.344
	c-0.043-0.33-0.294-0.598-0.622-0.66c-1.576-0.299-2.721-1.678-2.721-3.279c0-0.63,0.184-1.238,0.532-1.779
	c0.104,0.053,0.22,0.082,0.343,0.082c1.218,0,2.381-0.329,3.393-0.945c0.319,2.39,2.371,4.238,4.848,4.238
	c2.697,0,4.893-2.193,4.893-4.889c0-0.426-0.347-0.771-0.772-0.771c-0.427,0-0.772,0.346-0.772,0.771
	c0,1.844-1.502,3.345-3.348,3.345c-1.846,0-3.348-1.501-3.348-3.345c0-0.227,0.022-0.451,0.067-0.67
	c0.057-0.28-0.047-0.557-0.247-0.732c-0.017-0.019-0.033-0.037-0.052-0.057c-0.305-0.299-0.794-0.292-1.093,0.012
	c-0.947,0.967-2.214,1.499-3.568,1.499c-0.118,0-0.23,0.027-0.331,0.075c-0.097-0.064-0.208-0.107-0.327-0.125
	c-2.473-0.325-4.337-2.45-4.337-4.941c0-2.021,1.207-3.828,3.075-4.606c0.189-0.078-0.036-0.229,0.042-0.418
	c0.078-0.19,0.452-0.402,0.373-0.592c-0.129-0.309-0.194-0.635-0.194-0.969c0-0.478,0.141-0.948,0.405-1.359
	c0.177-0.273,0.162-0.628-0.035-0.886c-0.781-1.024-1.194-2.241-1.194-3.518c0-2.116,1.154-4.067,3.013-5.092
	c0.004-0.003,0.008-0.006,0.013-0.009c0.853-0.467,1.815-0.714,2.794-0.714c1.67,0,3.261,0.718,4.366,1.97
	c0.152,0.174,0.366,0.262,0.58,0.262c0.182,0,0.363-0.063,0.51-0.193c0.32-0.281,0.352-0.77,0.069-1.089
	c-1.398-1.584-3.412-2.493-5.524-2.493c-0.857,0-1.704,0.15-2.502,0.438c0.103-0.769,0.557-1.442,1.259-1.843
	c0.26-0.148,0.41-0.433,0.388-0.729c-0.011-0.136-0.021-0.265-0.021-0.386c0-2.369,1.686-4.427,4.007-4.893
	c0.245-0.049,0.451-0.213,0.553-0.44c0.806-1.793,2.594-2.951,4.556-2.951c2.754,0,4.995,2.239,4.995,4.991V21.57
	c-1.044-1.115-2.527-1.813-4.171-1.813c-0.954,0-1.88,0.233-2.71,0.682c-0.665-0.443-1.44-0.682-2.234-0.682
	c-0.427,0-0.772,0.346-0.772,0.771c0,0.425,0.346,0.771,0.772,0.771c0.607,0,1.199,0.23,1.669,0.647
	c0.264,0.234,0.653,0.26,0.945,0.063c0.689-0.465,1.495-0.711,2.33-0.711c2.3,0,4.171,1.87,4.171,4.168v22.229
	C23.071,49.541,21.569,51.04,19.724,51.04z M41.432,36.996c-0.119,0.018-0.23,0.061-0.328,0.125
	c-0.101-0.048-0.211-0.075-0.33-0.075c-1.354,0-2.621-0.532-3.568-1.499c-0.299-0.304-0.788-0.311-1.094-0.012
	c-0.018,0.02-0.034,0.038-0.051,0.057c-0.201,0.178-0.305,0.452-0.248,0.732c0.045,0.219,0.067,0.443,0.067,0.67
	c0,1.845-1.502,3.345-3.348,3.345c-0.427,0-0.772,0.347-0.772,0.772s0.346,0.771,0.772,0.771c2.477,0,4.528-1.85,4.848-4.237
	c1.013,0.615,2.177,0.944,3.394,0.944c0.123,0,0.238-0.03,0.343-0.082c0.349,0.541,0.532,1.149,0.532,1.779
	c0,1.603-1.146,2.981-2.722,3.28c-0.327,0.063-0.579,0.328-0.622,0.66c-0.32,2.476-2.447,4.342-4.947,4.342
	c-0.549,0-1.099-0.094-1.633-0.277c-0.195-0.066-0.408-0.055-0.593,0.036c-0.185,0.09-0.325,0.25-0.392,0.442
	c-0.465,1.357-1.731,2.27-3.151,2.27c-1.846,0-3.348-1.499-3.348-3.344V31.838c1.044,1.113,2.526,1.813,4.172,1.813
	c0.953,0,1.88-0.233,2.709-0.682c0.665,0.442,1.44,0.682,2.233,0.682c0.428,0,0.772-0.346,0.772-0.771s-0.346-0.771-0.772-0.771
	c-0.606,0-1.198-0.229-1.668-0.646c-0.264-0.234-0.652-0.261-0.945-0.063c-0.688,0.465-1.494,0.709-2.329,0.709
	c-2.302,0-4.172-1.869-4.172-4.168V15.482c0.502,0.397,1.1,0.681,1.753,0.806c-0.001,0.042-0.002,0.083-0.002,0.125
	c0,2.695,2.193,4.888,4.893,4.888c2.697,0,4.893-2.192,4.893-4.888c0-0.427-0.346-0.771-0.771-0.771
	c-0.427,0-0.773,0.345-0.773,0.771c0,1.845-1.5,3.345-3.346,3.345c-1.847,0-3.349-1.5-3.349-3.345c0-0.228,0.022-0.455,0.067-0.677
	c0.049-0.23-0.013-0.47-0.164-0.65c-0.15-0.18-0.377-0.282-0.611-0.276c-0.04,0.001-0.075,0.005-0.102,0.008
	c-1.375-0.021-2.486-1.143-2.486-2.521V6.534c0-2.752,2.24-4.991,4.994-4.991c1.963,0,3.75,1.158,4.557,2.951
	c0.104,0.228,0.309,0.392,0.553,0.44c2.322,0.466,4.008,2.523,4.008,4.893c0,0.121-0.011,0.25-0.021,0.386
	c-0.022,0.297,0.127,0.581,0.388,0.729c0.701,0.4,1.155,1.074,1.258,1.843c-0.797-0.287-1.645-0.438-2.5-0.438
	c-0.428,0-0.772,0.346-0.772,0.772c0,0.426,0.346,0.771,0.772,0.771c0.979,0,1.94,0.247,2.793,0.714
	c0.006,0.003,0.01,0.006,0.015,0.009c1.856,1.024,3.012,2.976,3.012,5.092c0,1.276-0.413,2.493-1.194,3.518
	c-0.196,0.258-0.211,0.612-0.035,0.886c0.266,0.411,0.406,0.881,0.406,1.359c0,0.334-0.065,0.66-0.195,0.969
	c-0.078,0.189-0.079,0.401-0.002,0.592c0.078,0.188,0.229,0.34,0.418,0.418c1.867,0.777,3.074,2.587,3.074,4.607
	C45.768,34.546,43.902,36.671,41.432,36.996z"/>
<rect id="_x3C_Фрагмент_x3E__1_" x="0.128" y="0.086" fill="none" width="47" height="53"/>
</svg>
