<?xml version="1.0" encoding="utf-8"?>
<!-- Generator: Adobe Illustrator 15.1.0, SVG Export Plug-In  -->
<!DOCTYPE svg PUBLIC "-//W3C//DTD SVG 1.1//EN" "http://www.w3.org/Graphics/SVG/1.1/DTD/svg11.dtd" [
	<!ENTITY ns_flows "http://ns.adobe.com/Flows/1.0/">
]>
<svg version="1.1"
	 xmlns="http://www.w3.org/2000/svg" xmlns:xlink="http://www.w3.org/1999/xlink" xmlns:a="http://ns.adobe.com/AdobeSVGViewerExtensions/3.0/"
	 x="0px" y="0px" width="34px" height="60px" viewBox="0 0 34 60" enable-background="new 0 0 34 60" xml:space="preserve">
<defs>
</defs>
<g>
	<g>
		<path d="M31.186,15.946H2.836c-1.563,0-2.835,0.94-2.835,2.507v38.676c0,1.566,1.271,2.841,2.835,2.841h28.35
			c1.563,0,2.834-1.274,2.834-2.841V18.453C34.02,16.887,32.748,15.946,31.186,15.946z M32.018,48.574v8.492
			c0,0-0.424,0.946-0.945,0.946H2.886c-0.521,0-0.944-0.946-0.944-0.946V18.912l0.944-0.946h28.187c0.521,0,0.945,0.946,0.945,0.946
			V48.574z M3.783,13.03h26.455c1.564,0,2.836-1.272,2.836-2.839V8.793c0-1.565-1.271-2.839-2.836-2.839h-6.324
			c-0.243-3.174-3.203-5.934-6.432-5.934c-3.227,0-6.25,2.76-6.493,5.934H3.783c-1.564,0-2.838,1.273-2.838,2.838v1.399
			C0.945,11.758,2.219,13.03,3.783,13.03z M17.482,2.166c2.184,0,3.967,1.662,4.205,3.788h-8.409
			C13.518,3.828,15.3,2.166,17.482,2.166z M2.961,8.918c0-0.521,0.424-0.944,0.946-0.944h26.144c0.521,0,0.946,0.424,0.946,0.944
			v0.898c0,0.521-0.425,1.112-0.946,1.112H3.908c-0.523,0-0.947-0.591-0.947-1.112V8.918z M17.049,22.992
			c-6.067,0-11.004,4.948-11.004,11.029s4.937,11.029,11.004,11.029c6.068,0,11.004-4.948,11.004-11.029
			S23.117,22.992,17.049,22.992z M16.994,42.978c-4.957,0-8.99-4.042-8.99-9.011s4.033-9.011,8.99-9.011s8.99,4.042,8.99,9.011
			S21.951,42.978,16.994,42.978z M20.033,28.01h-6.045v2.944h-3.03v5.994h3.03v3.07h6.045v-3.07h3.029v-5.994h-3.029V28.01z
			 M20.954,32.973v1.988h-2.999V38h-1.89v-3.039h-3.062v-1.988h3.062v-3.069h1.89v3.069H20.954z"/>
	</g>
</g>
<rect id="_x3C_Фрагмент_x3E__1_" fill="none" width="34" height="60"/>
</svg>
