<?xml version="1.0" encoding="utf-8"?>
<!-- Generator: Adobe Illustrator 15.1.0, SVG Export Plug-In . SVG Version: 6.00 Build 0)  -->
<!DOCTYPE svg PUBLIC "-//W3C//DTD SVG 1.1//EN" "http://www.w3.org/Graphics/SVG/1.1/DTD/svg11.dtd">
<svg version="1.1" id="Слой_1" xmlns="http://www.w3.org/2000/svg" xmlns:xlink="http://www.w3.org/1999/xlink" x="0px" y="0px"
	 width="44.328px" height="64px" viewBox="0 0 44.328 64" enable-background="new 0 0 44.328 64" xml:space="preserve">
<path d="M43.303,55.85c0.797-1.047,1.028-2.105,0.687-3.154c-1.394-4.232-12.349-6.836-18.231-8.233
	c-0.909-0.217-1.671-0.396-2.212-0.54c0.053-3.779,0.779-6.73,1.316-8.91c0.366-1.479,0.643-2.6,0.577-3.453
	c0.896-0.886,1.33-1.904,1.293-3.03c-0.086-2.677-2.86-4.989-3.188-5.254l-7.472-7.461l-0.426-4.963
	c-0.061-0.697,0.182-1.39,0.663-1.898l1.395-1.475c0.69-0.729,0.663-1.889-0.061-2.582C16.54,3.838,14.3,1.908,11.687,0.87
	C8.486-0.403,5.566,0.01,3.238,2.062c-2.754,2.426-3.847,5.202-3.08,7.815c0.57,1.939,2.087,3.578,4.226,4.679
	c-0.492,0.897-1.289,2.786-1.289,5.622c0,3.98,2.233,7.719,2.328,7.875c0.103,0.169,0.285,0.271,0.478,0.271
	c0.03,0,0.061-0.002,0.09-0.008c0.225-0.038,0.405-0.207,0.455-0.429c0.052-0.228,1.257-5.604,1.098-8.055
	c-0.099-1.525-0.743-3.308-1.243-4.489c0.604,0.194,1.242,0.352,1.906,0.469c0.369,0.964,0.261,1.805,0.157,2.248
	c-0.044,0.191-0.127,0.544-0.172,0.832c-0.229,1.476-0.858,5.872-0.858,9.449c0,3.493,0.72,7.651,1.029,9.277
	c0.057,0.297,0.077,0.599,0.063,0.897c-0.122,2.541-0.705,15.418-0.15,19.524c0.02,0.144,0.026,0.286,0.025,0.429
	C6.696,59,4.856,60.282,3.551,61.307c-0.383,0.303-0.527,0.793-0.367,1.254c0.16,0.459,0.578,0.758,1.066,0.758h1.789l2.07-0.033
	c0.231,0.277,0.521,0.513,0.865,0.679c0.412,0.196,0.851,0.291,1.284,0.291c0.862,0,1.706-0.373,2.281-1.042l27.283-0.438
	c1.879-0.029,3.578-1.202,4.23-2.918c0.199-0.524,0.316-1.104,0.354-1.719C44.447,57.416,44.007,56.632,43.303,55.85z M5.676,26.101
	c-0.633-1.388-1.464-3.643-1.464-5.923c0-2.197,0.528-3.769,0.943-4.664c0.478,1.093,1.178,2.915,1.273,4.392
	C6.527,21.426,6.027,24.315,5.676,26.101z M25.496,45.547c4.857,1.153,16.232,3.855,17.431,7.497
	c0.213,0.647,0.073,1.31-0.425,2.011c-2.116-1.902-5.412-3.662-6.75-4.342c-4.735-2.396-9.735-4.074-13.793-4.663
	c0.613-0.405,1.009-0.798,1.24-1.067C23.764,45.134,24.548,45.32,25.496,45.547z M22.824,24.129
	c0.025,0.021,2.719,2.163,2.791,4.433c0.027,0.882-0.346,1.657-1.141,2.37c-0.146,0.133-0.215,0.332-0.178,0.525
	c0.131,0.644-0.156,1.811-0.521,3.286c-0.563,2.278-1.326,5.39-1.35,9.421c-0.219,0.281-0.954,1.096-2.603,1.72
	c-1.697,0.642-3.826,0.896-6.331,0.755c0.115-2.428,0.13-4.639-0.073-5.902c-0.054-0.334-0.035-0.653,0.058-0.951
	c0.687-2.212,1.847-6.993,2.462-11.016c0.24-0.226,0.695-0.699,1.123-1.406c0.877-1.443,1.064-3.18,0.527-4.791
	c1.271,0.672,2.293,1.005,3.078,1.005c0.338,0,0.633-0.062,0.885-0.184c0.125-0.062,0.23-0.132,0.318-0.208l0.901,0.9
	C22.789,24.1,22.807,24.115,22.824,24.129z M29.189,54.615c0.24,1.509,0.971,5.244,2.51,7.175l-18.445,0.296l0.24-0.417
	c0.268-0.46,0.299-1.024,0.086-1.511l-1.018-2.322c0.012-0.105,0.029-0.266,0.051-0.463l0.562-0.568
	c0.499-0.507,1.308-0.533,1.841-0.062l0.891,0.79c0.148,0.131,0.355,0.175,0.544,0.113C20.084,56.467,25.305,55.094,29.189,54.615z
	 M1.23,9.563C0.592,7.39,1.568,5.022,3.977,2.898C8.666-1.234,14.55,3.476,16.865,5.696c0.283,0.272,0.294,0.728,0.023,1.013
	l-1.395,1.476c-0.699,0.739-1.051,1.745-0.964,2.76l0.443,5.165c0.011,0.131,0.069,0.254,0.161,0.347l5.936,5.928c0,0,0,0,0,0.001
	c-0.234,0.119-1.276,0.361-4.574-1.753c-0.654-0.762-1.502-1.342-2.476-1.668c-1.96-0.657-3.71-0.095-4.774,0.443
	c0.004-0.029,0.008-0.059,0.012-0.087c0.051-0.336,0.129-0.665,0.216-0.994c0.142-0.535,0.235-1.566-0.308-3.189
	c-0.066-0.197-0.238-0.34-0.443-0.371C4.928,14.183,1.986,12.141,1.23,9.563z M6.029,62.202H4.25l-0.008-0.017
	c1.053-0.826,2.463-1.828,3.75-2.398c-0.131,0.338-0.258,0.689-0.373,1.053c-0.141,0.445-0.15,0.905-0.055,1.338L6.029,62.202z
	 M9.459,62.957c-0.662-0.316-0.994-1.083-0.773-1.781c0.132-0.418,0.277-0.82,0.43-1.199c0.27-0.66,0.362-1.382,0.268-2.084
	c-0.543-4.012,0.037-16.799,0.16-19.319c0.018-0.39-0.01-0.778-0.082-1.16c-0.237-1.245-1.01-5.576-1.01-9.07
	c0-2.515,0.33-5.515,0.596-7.521c0.564-0.39,2.465-1.52,4.617-0.798c1.309,0.438,2.337,1.446,2.82,2.764
	c0.463,1.263,0.365,2.631-0.26,3.792c0.141-1.382,0.176-2.563,0.043-3.353c-0.051-0.304-0.338-0.509-0.643-0.458
	c-0.305,0.05-0.51,0.337-0.459,0.642c0.505,3.029-1.73,12.739-2.756,16.044c-0.145,0.463-0.176,0.954-0.094,1.461
	c0.601,3.729-0.866,16.813-0.881,16.945c-0.012,0.099,0.004,0.195,0.043,0.287l1.077,2.457c0.071,0.162,0.061,0.354-0.028,0.506
	l-0.637,1.1C11.402,63.049,10.334,63.379,9.459,62.957z M43.01,59.462c-0.492,1.293-1.779,2.177-3.205,2.198l-6.459,0.104
	c-1.509-0.701-2.608-4.57-3.043-7.264c1.848-0.15,3.269-0.035,3.858,0.491c0.23,0.204,0.584,0.185,0.789-0.048
	c0.205-0.229,0.185-0.582-0.047-0.786c-1.318-1.173-4.809-1.103-10.668,0.212c-3.516,0.788-6.824,1.804-7.825,2.117l-0.653-0.578
	c-0.843-0.747-2.061-0.813-2.969-0.221c0.201-2.013,0.479-5.045,0.646-7.938c0.461,0.024,0.914,0.044,1.352,0.044
	c2.031,0,3.809-0.275,5.307-0.82c4.108,0.271,9.899,2.078,15.151,4.737c5.363,2.714,8.105,5.258,8.045,6.368
	C43.262,58.579,43.167,59.044,43.01,59.462z"/>
<rect id="_x3C_Фрагмент_x3E__1_" fill="none" width="45" height="64"/>
</svg>
