<?xml version="1.0" encoding="utf-8"?>
<!-- Generator: Adobe Illustrator 15.1.0, SVG Export Plug-In . SVG Version: 6.00 Build 0)  -->
<!DOCTYPE svg PUBLIC "-//W3C//DTD SVG 1.1//EN" "http://www.w3.org/Graphics/SVG/1.1/DTD/svg11.dtd">
<svg version="1.1" id="Слой_1" xmlns="http://www.w3.org/2000/svg" xmlns:xlink="http://www.w3.org/1999/xlink" x="0px" y="0px"
	 width="24.084px" height="24.333px" viewBox="0 0 24.084 24.333" enable-background="new 0 0 24.084 24.333" xml:space="preserve">
<path fill="#FFFFFF" d="M19.321,21.785c-0.495,0.504-1.021,0.972-1.485,1.494c-0.683,0.767-1.541,1.01-2.515,0.952
	c-1.42-0.073-2.735-0.551-3.999-1.166c-2.813-1.362-5.215-3.26-7.224-5.651c-1.486-1.767-2.71-3.688-3.523-5.864
	c-0.393-1.057-0.673-2.131-0.589-3.271c0.057-0.7,0.318-1.298,0.832-1.793c0.56-0.534,1.084-1.085,1.636-1.627
	c0.719-0.71,1.616-0.701,2.336,0c0.448,0.439,0.878,0.878,1.317,1.317c0.43,0.43,0.86,0.85,1.28,1.28
	c0.748,0.756,0.748,1.635,0,2.391c-0.532,0.543-1.065,1.084-1.616,1.606c-0.141,0.14-0.159,0.252-0.084,0.431
	c0.354,0.858,0.878,1.625,1.457,2.334c1.169,1.438,2.495,2.719,4.084,3.709c0.337,0.215,0.71,0.364,1.064,0.561
	c0.178,0.104,0.309,0.066,0.447-0.084c0.533-0.551,1.084-1.094,1.626-1.635c0.72-0.709,1.617-0.709,2.327,0
	c0.879,0.869,1.748,1.738,2.615,2.615C20.059,20.151,20.059,21.047,19.321,21.785z M11.032,7.269l0.28-1.999
	c1.935,0.271,3.689,1.149,5.072,2.531c1.318,1.317,2.18,2.971,2.486,4.792l-1.99,0.346c-0.242-1.41-0.906-2.69-1.926-3.708
	C13.883,8.157,12.527,7.474,11.032,7.269z M22.127,12.594c-0.449-2.617-1.685-4.99-3.563-6.876c-1.981-1.98-4.495-3.231-7.271-3.625
	l0.279-1.999c3.205,0.449,6.121,1.896,8.41,4.195c2.178,2.176,3.607,4.932,4.131,7.959L22.127,12.594z"/>
<polyline id="_x3C_Фрагмент_x3E__1_" fill="none" points="26,27 1.916,27 1.916,0 27.916,0 27.916,27 26,27 "/>
</svg>
