<?xml version="1.0" encoding="utf-8"?>
<!-- Generator: Adobe Illustrator 15.1.0, SVG Export Plug-In . SVG Version: 6.00 Build 0)  -->
<!DOCTYPE svg PUBLIC "-//W3C//DTD SVG 1.1//EN" "http://www.w3.org/Graphics/SVG/1.1/DTD/svg11.dtd">
<svg version="1.1" id="Слой_1" xmlns="http://www.w3.org/2000/svg" xmlns:xlink="http://www.w3.org/1999/xlink" x="0px" y="0px"
	 width="74px" height="63px" viewBox="0 0.288 74 63" enable-background="new 0 0.288 74 63" xml:space="preserve">
<path fill="#E40421" d="M74.12,33.07V0.997H41.796l3.187,3.312c-0.325,0.288-0.647,0.583-0.95,0.894l-0.007-0.001l-24.429,24.43
	l-0.024-0.026c-0.074,0.095-0.149,0.186-0.223,0.276l-1.323,1.321c-1.687,1.377-3.843,2.207-6.191,2.207
	c-3.155-0.002-5.954-1.5-7.745-3.815l-0.074,0.074l7.772,7.771l0.037,0.037l25.81,25.812l32.24-32.24l-0.004-0.002
	c0.313-0.305,0.607-0.626,0.896-0.953L74.12,33.07z"/>
<path fill="#8D172F" d="M4.142,29.851c1.772,2.29,4.54,3.771,7.661,3.773c2.322,0,4.455-0.821,6.124-2.183l1.309-1.307
	c0.073-0.09,0.147-0.179,0.221-0.272l0.023,0.026l17.843-17.843l-6.324-6.323l-0.002,0.002c-3.282-3.352-7.855-5.436-12.918-5.436
	C8.094,0.289,0,8.383,0,18.366c0,4.368,1.553,8.37,4.132,11.495L4.142,29.851z"/>
<rect id="_x3C_Фрагмент_x3E__1_" x="0.203" fill="none" width="74" height="63"/>
</svg>
