<?xml version="1.0" encoding="utf-8"?>
<!-- Generator: Adobe Illustrator 15.1.0, SVG Export Plug-In . SVG Version: 6.00 Build 0)  -->
<!DOCTYPE svg PUBLIC "-//W3C//DTD SVG 1.1//EN" "http://www.w3.org/Graphics/SVG/1.1/DTD/svg11.dtd">
<svg version="1.1" id="Слой_1" xmlns="http://www.w3.org/2000/svg" xmlns:xlink="http://www.w3.org/1999/xlink" x="0px" y="0px"
	 width="26px" height="28px" viewBox="0 0 26 28" enable-background="new 0 0 26 28" xml:space="preserve">
<path fill="white" d="M9.982,1.749H9.518c-0.256,0-0.463,0.208-0.463,0.464c0,0.257,0.208,0.464,0.463,0.464h0.465
	c0.256,0,0.465-0.207,0.465-0.464C10.447,1.957,10.239,1.749,9.982,1.749z M8.125,1.749H6.268c-0.257,0-0.464,0.208-0.464,0.464
	c0,0.257,0.207,0.464,0.464,0.464h1.857c0.256,0,0.464-0.207,0.464-0.464C8.589,1.957,8.381,1.749,8.125,1.749z M25.75,12.328
	c-0.022-0.057-0.057-0.108-0.1-0.152l-5.573-5.575c-0.181-0.181-0.474-0.181-0.656,0c-0.181,0.182-0.181,0.476,0,0.657l4.78,4.783
	l-16.63,0c-0.256,0-0.464,0.207-0.464,0.465c0,0.257,0.192,0.521,0.449,0.521l16.63,0l-4.765,4.727
	c-0.181,0.181-0.181,0.475,0,0.657c0.09,0.09,0.209,0.136,0.328,0.136c0.118,0,0.237-0.046,0.328-0.136l5.573-5.575
	c0.043-0.043,0.077-0.095,0.1-0.152C25.799,12.57,25.799,12.441,25.75,12.328z M15.448,14.649c-0.257,0-0.465,0.208-0.465,0.464
	l-0.005,5.776L1.212,20.905L1.243,4.179h13.73v6.267c0,0.257,0.209,0.464,0.465,0.464c0.257,0,0.504-0.173,0.504-0.43V2.305
	c0-1.128-0.84-2.058-1.968-2.058H2.275c-1.128,0-2.045,0.918-2.045,2.047v23.43c0,1.128,0.917,2.047,2.045,2.047h11.591
	c1.129,0,2.076-0.977,2.076-2.104V15.057C15.942,14.799,15.705,14.649,15.448,14.649z M1.228,2.294
	C1.229,1.678,1.656,1.23,2.271,1.23H13.9c0.617,0,1.074,0.424,1.074,1.041l0.016,0.941L1.243,3.196L1.228,2.294z M13.921,26.803
	H2.329c-0.615,0-1.117-0.463-1.117-1.079l0.016-3.852l13.743,0.016l0.013,3.836C14.983,26.34,14.536,26.803,13.921,26.803z
	 M8.125,22.66c-1.024,0-1.857,0.833-1.857,1.858c0,1.024,0.833,1.858,1.857,1.858c1.024,0,1.857-0.834,1.857-1.858
	C9.982,23.493,9.149,22.66,8.125,22.66z M8.125,25.447c-0.513,0-0.929-0.417-0.929-0.929c0-0.513,0.417-0.93,0.929-0.93
	c0.511,0,0.929,0.417,0.929,0.93C9.054,25.03,8.636,25.447,8.125,25.447z"/>
</svg>
