<?xml version="1.0" encoding="utf-8"?>
<!-- Generator: Adobe Illustrator 15.1.0, SVG Export Plug-In  -->
<!DOCTYPE svg PUBLIC "-//W3C//DTD SVG 1.1//EN" "http://www.w3.org/Graphics/SVG/1.1/DTD/svg11.dtd" [
	<!ENTITY ns_flows "http://ns.adobe.com/Flows/1.0/">
]>
<svg version="1.1"
	 xmlns="http://www.w3.org/2000/svg" xmlns:xlink="http://www.w3.org/1999/xlink" xmlns:a="http://ns.adobe.com/AdobeSVGViewerExtensions/3.0/"
	 x="0px" y="0px" width="19px" height="19px" viewBox="0 0 19 19" enable-background="new 0 0 19 19" xml:space="preserve">
<defs>
</defs>
<g>
	<g>
		<path d="M0.983,6.445c-0.407,0-0.877,0.471-0.877,0.877c0,0.407,0.47,0.878,0.877,0.878c6.811,0,9.892,2.708,9.919,9.907
			c0,0.408,0.471,0.934,0.877,0.934c0.407,0,0.905-0.525,0.905-0.934C12.685,9.984,8.633,6.445,0.983,6.445z M1.025,0.109
			c-0.497,0-0.899,0.402-0.899,0.898c0,0.498,0.402,0.899,0.899,0.899c11.607,0,16.192,7.207,16.221,16.173
			c0,0.497,0.402,0.899,0.898,0.899c0.497,0,0.899-0.402,0.899-0.899C19.044,9.078,14.438,0.109,1.025,0.109z M3.705,11.82
			c-1.984,0-3.598,1.619-3.598,3.608c0,1.99,1.613,3.61,3.598,3.61s3.599-1.62,3.599-3.61C7.304,13.439,5.689,11.82,3.705,11.82z
			 M3.698,17.506c-1.139,0-2.065-0.93-2.065-2.071s0.927-2.069,2.065-2.069c1.138,0,2.065,0.928,2.065,2.069
			S4.836,17.506,3.698,17.506z"/>
	</g>
</g>
<rect id="_x3C_Фрагмент_x3E__1_" fill="none" width="19" height="19"/>
</svg>
