<?xml version="1.0" encoding="utf-8"?>
<!-- Generator: Adobe Illustrator 15.1.0, SVG Export Plug-In  -->
<!DOCTYPE svg PUBLIC "-//W3C//DTD SVG 1.1//EN" "http://www.w3.org/Graphics/SVG/1.1/DTD/svg11.dtd" [
	<!ENTITY ns_flows "http://ns.adobe.com/Flows/1.0/">
]>
<svg version="1.1"
	 xmlns="http://www.w3.org/2000/svg" xmlns:xlink="http://www.w3.org/1999/xlink" xmlns:a="http://ns.adobe.com/AdobeSVGViewerExtensions/3.0/"
	 x="0px" y="0px" width="26px" height="27px" viewBox="0.014 0.108 26 27" enable-background="new 0.014 0.108 26 27"
	 xml:space="preserve">
<defs>
</defs>
<path d="M25.5,4.022h-5.478V0.544c0-0.3-0.244-0.544-0.544-0.544H6.62c-0.3,0-0.544,0.244-0.544,0.544v3.479H0.544
	C0.243,4.022,0,4.267,0,4.567v15.999c0,0.301,0.243,0.545,0.544,0.545h5.47v5.451c0,0.301,0.244,0.544,0.544,0.544h12.921
	c0.3,0,0.544-0.243,0.544-0.544v-5.451H25.5c0.301,0,0.544-0.244,0.544-0.545V4.567C26.044,4.267,25.801,4.022,25.5,4.022z
	 M6.977,1.088H19.06v2.935H6.977V1.088z M18.872,26.019H6.977l0.063-12.947h11.958l0.063,12.947H18.872z M25.019,20.022h-4.996
	v-6.89h1.5c0.3,0,0.544-0.243,0.544-0.544c0-0.3-0.244-0.543-0.544-0.543h-1.669H6.62H4.51c-0.301,0-0.544,0.243-0.544,0.543
	c0,0.301,0.243,0.544,0.544,0.544h1.566l-0.063,6.89H1.088V5.111H6.62h13.233h5.165V20.022z"/>
<path d="M9.505,22.858h7.035c0.3,0,0.544-0.243,0.544-0.544c0-0.3-0.244-0.544-0.544-0.544H9.505c-0.301,0-0.544,0.244-0.544,0.544
	C8.961,22.615,9.204,22.858,9.505,22.858z"/>
<path d="M9.505,19.858h7.035c0.3,0,0.544-0.243,0.544-0.544c0-0.3-0.244-0.544-0.544-0.544H9.505c-0.301,0-0.544,0.244-0.544,0.544
	C8.961,19.615,9.204,19.858,9.505,19.858z"/>
<path d="M9.505,16.858h7.035c0.3,0,0.544-0.243,0.544-0.544c0-0.3-0.244-0.544-0.544-0.544H9.505c-0.301,0-0.544,0.244-0.544,0.544
	C8.961,16.615,9.204,16.858,9.505,16.858z"/>
<path d="M12.505,7.858h7.035c0.3,0,0.544-0.243,0.544-0.544c0-0.3-0.244-0.544-0.544-0.544h-7.035c-0.301,0-0.544,0.244-0.544,0.544
	C11.961,7.615,12.204,7.858,12.505,7.858z"/>
<rect id="_x3C_Фрагмент_x3E__1_" x="0.014" y="0.108" fill="none" width="26" height="27"/>
</svg>
