<?xml version="1.0" encoding="utf-8"?>
<!-- Generator: Adobe Illustrator 15.1.0, SVG Export Plug-In . SVG Version: 6.00 Build 0)  -->
<!DOCTYPE svg PUBLIC "-//W3C//DTD SVG 1.1//EN" "http://www.w3.org/Graphics/SVG/1.1/DTD/svg11.dtd">
<svg version="1.1" id="Слой_1" xmlns="http://www.w3.org/2000/svg" xmlns:xlink="http://www.w3.org/1999/xlink" x="0px" y="0px"
	 width="42.921px" height="43.002px" viewBox="0 0 42.921 43.002" enable-background="new 0 0 42.921 43.002" xml:space="preserve">
<g>
	<g>
		<path d="M18.154,14.388c-0.255,0.421-0.184,1.016,0.156,1.33c0.939,0.863,1.791,1.319,3.15,1.319c1.358,0,2.358-0.456,3.298-1.319
			c0.342-0.314,0.411-0.909,0.157-1.33c-0.254-0.421-0.735-0.508-1.077-0.194c-0.671,0.617-1.468,0.943-2.304,0.943
			s-1.633-0.326-2.304-0.943C18.891,13.88,18.408,13.967,18.154,14.388z M23.924,9.994h0.195c0.494,0,0.895-0.462,0.895-0.957
			c0-0.494-0.397-0.988-0.895-0.988h-0.195c-0.494,0-0.895,0.494-0.895,0.988C23.029,9.532,23.43,9.994,23.924,9.994z M18.896,9.963
			h0.195c0.494,0,0.895-0.432,0.895-0.926c0-0.494-0.4-0.988-0.895-0.988h-0.195c-0.494,0-0.895,0.494-0.895,0.988
			C18.002,9.532,18.402,9.963,18.896,9.963z M38.959,30.01h-0.742c-1.967,0-3.652,0.861-3.922,2.791c0,0-0.012,0.113-0.012,0.154
			c0,0.021-0.018,0.039-0.039,0.039h-0.133c-0.566,0-1.119-0.367-1.119-0.933v-3.104c3.451,0,6.354-3.148,6.354-6.604
			c0-3.451-2.809-6.354-6.26-6.354h-1.914c0.833-1.5,1.195-3.124,1.229-4.95c0.92-0.358,1.574-1.254,1.574-2.299
			c0-1.359-1.104-2.466-2.467-2.466H31.4c-0.813-1.755-2.17-3.256-3.774-4.366c-1.813-1.253-3.94-1.918-6.153-1.92
			c-0.008,0-0.018,0-0.026,0c-2.212,0.003-4.339,0.667-6.151,1.921c-1.604,1.11-2.898,2.611-3.711,4.366h-0.109
			c-1.359,0-2.465,1.106-2.465,2.466c0,1.045,0.653,1.941,1.573,2.299c0.034,1.826,0.396,3.45,1.229,4.95H9.836
			c-3.451,0-6.26,2.901-6.26,6.354c0,3.451,2.996,6.604,6.447,6.604v3.104c0,0.563-0.647,0.934-1.213,0.934H8.678
			c-0.021,0-0.039-0.02-0.039-0.039c0-0.041-0.103-0.537-0.178-0.764C7.93,30.626,6.426,30.01,4.705,30.01H3.963
			C1.777,30.01,0,31.788,0,33.974v0.51c0,4.932,4.012,8.535,8.941,8.535h25.038c4.934,0,8.942-3.604,8.942-8.535v-0.508
			C42.922,31.788,41.145,30.01,38.959,30.01z M11.645,9.338h-0.014c-0.373,0-0.677-0.304-0.677-0.678
			c0-0.373,0.304-0.677,0.677-0.677h0.542c0.366,0,0.696-0.13,0.831-0.471c0.923-2.328,2.736-4.009,4.949-4.882
			c0.086,0.103,1.4,1.679,1.703,1.981c0.313,0.313,0.703,0.547,1.203,0.328s0.578-0.486,0.578-1.047l-1.525-1.807
			c0.355-0.058,0.713-0.108,1.078-0.127l1.89,2.679c0.274,0.411,0.829,0.522,1.24,0.248c0.411-0.274,0.522-0.829,0.248-1.24
			l-1.12-1.524c2.979,0.59,5.578,2.482,6.732,5.392c0.135,0.341,0.308,0.471,0.674,0.471h0.697c0.375,0,0.678,0.304,0.678,0.677
			s-0.303,0.74-0.678,0.74h-0.016c-0.245,0-0.479,0.1-0.646,0.278c-0.168,0.178-0.103,0.449-0.088,0.693
			c0.008,0.159,0.012,0.32,0.012,0.477c0,4.996-4.188,9.154-9.184,9.154c-4.997,0-9.061-4.158-9.061-9.154
			c0-0.157,0.004-0.318,0.013-0.477c0.013-0.245-0.075-0.578-0.245-0.756C11.969,9.44,11.891,9.338,11.645,9.338z M41.039,34.481
			c0,3.943-3.115,6.527-7.061,6.527H8.941c-3.943,0-6.997-2.553-6.997-6.497v-0.509c0-1.198,0.819-2.02,2.019-2.02h0.742
			c1.072,0,1.991,0.096,2.146,1.137c0.039,0.975,0.843,1.849,1.826,1.849h6.43c0.494,0,0.895-0.493,0.895-0.987
			c0-0.492-0.4-1.02-0.895-1.02h-3.332c0.125-0.316,0.193-0.539,0.193-0.898v-3.104h1.444c1.972,0,3.577-1.604,3.577-3.577
			c0-1.972-1.605-3.42-3.577-3.42H9.898c-0.494,0-0.895,0.523-0.895,1.02s0.4,0.987,0.895,0.987h3.515
			c0.985,0,1.632,0.429,1.632,1.413c0,0.986-0.646,1.635-1.632,1.635H9.836c-2.465,0-4.471-2.193-4.471-4.66
			c0-2.465,2.006-4.375,4.471-4.375h3.217c1.617,2.207,5.077,4,8.377,4s6.509-1.668,8.501-4h3.152c2.465,0,4.473,1.912,4.473,4.375
			c0,2.465-2.008,4.66-4.473,4.66h-3.577c-0.983,0-1.601-0.646-1.601-1.635c0-0.984,0.611-1.413,1.601-1.413h3.608
			c0.49,0,0.894-0.493,0.894-0.987s-0.397-1.02-0.894-1.02h-3.608c-1.973,0-3.515,1.448-3.515,3.42c0,1.975,1.542,3.577,3.515,3.577
			h1.478v3.104c0,0.359,0.066,0.611,0.191,0.933h-3.236c-0.494,0-0.896,0.493-0.896,0.985c0,0.494,0.398,0.987,0.896,0.987h6.306
			c0.981,0,1.787-0.874,1.825-1.849c0.156-1.041,1.074-1.197,2.146-1.197h0.742c1.199,0,2.08,0.852,2.08,2.051L41.039,34.481
			L41.039,34.481z M21.508,23.971c-0.565,0-1.023,0.458-1.023,1.023c0,0.563,0.458,1.022,1.023,1.022
			c0.565,0,1.023-0.459,1.023-1.022C22.531,24.429,22.073,23.971,21.508,23.971z M21.508,27.971c-0.565,0-1.023,0.458-1.023,1.023
			c0,0.563,0.458,1.022,1.023,1.022c0.565,0,1.023-0.459,1.023-1.022C22.531,28.429,22.073,27.971,21.508,27.971z M21.508,32.002
			c-0.565,0-1.023,0.458-1.023,1.022c0,0.563,0.458,1.021,1.023,1.021c0.565,0,1.023-0.458,1.023-1.021
			C22.531,32.46,22.073,32.002,21.508,32.002z"/>
	</g>
</g>
<path d="M34.285,33.258c-0.313,1.063-0.75-0.813-0.938,0c-0.188,4.656,1.719,7.031,1.719,7.031h1.063
	C36.129,40.289,33.816,37.103,34.285,33.258z"/>
<path d="M8.566,33.247l0.932,0.511c-0.09-0.507,0.321,3.345-1.873,6.992c-0.556,0.622-0.037-1.231-0.823-0.451
	C9.062,37.153,8.566,33.247,8.566,33.247z"/>
<path d="M33.042,21.75c0.344,0.031,0.719,0,0.938,0c0.094,4.969-1.781,6.969-1.781,6.969h-1.063
	C31.136,28.719,33.354,25.656,33.042,21.75z"/>
<path d="M11.554,28.335c-0.319,0.129-0.64,0.329-0.834,0.432c-2.354-4.377-1.602-7.016-1.602-7.016l0.946-0.484
	C10.064,21.267,9.49,25.004,11.554,28.335z"/>
<rect id="_x3C_Фрагмент_x3E__1_" fill="none" width="43" height="49"/>
</svg>
