<?xml version="1.0" encoding="utf-8"?>
<!-- Generator: Adobe Illustrator 15.1.0, SVG Export Plug-In  -->
<!DOCTYPE svg PUBLIC "-//W3C//DTD SVG 1.1//EN" "http://www.w3.org/Graphics/SVG/1.1/DTD/svg11.dtd" [
	<!ENTITY ns_flows "http://ns.adobe.com/Flows/1.0/">
]>
<svg version="1.1"
	 xmlns="http://www.w3.org/2000/svg" xmlns:xlink="http://www.w3.org/1999/xlink" xmlns:a="http://ns.adobe.com/AdobeSVGViewerExtensions/3.0/"
	 x="0px" y="0px" width="34px" height="43px" viewBox="0 0 34 43" enable-background="new 0 0 34 43" xml:space="preserve">
<defs>
</defs>
<g>
	<g>
		<path fill-rule="evenodd" clip-rule="evenodd" d="M11.482,29.001c-1.382,0-2.502,1.12-2.502,2.502c0,1.382,1.12,2.501,2.502,2.501
			s2.502-1.12,2.502-2.501C13.984,30.121,12.864,29.001,11.482,29.001z M11.508,32.754c-0.687,0-1.242-0.556-1.242-1.242
			c0-0.686,0.556-1.242,1.242-1.242c0.686,0,1.242,0.556,1.242,1.242C12.75,32.199,12.193,32.754,11.508,32.754z M11.482,20.001
			c-1.382,0-2.502,1.12-2.502,2.502c0,1.382,1.12,2.501,2.502,2.501s2.502-1.12,2.502-2.501
			C13.984,21.121,12.864,20.001,11.482,20.001z M15.467,12.968h5.03c0.275,0,0.498-0.223,0.498-0.499
			c0-0.275-0.223-0.498-0.498-0.498h-5.03c-0.275,0-0.498,0.223-0.498,0.498C14.969,12.746,15.191,12.968,15.467,12.968z
			 M15.467,14.968h5.03c0.275,0,0.498-0.223,0.498-0.498c0-0.275-0.223-0.498-0.498-0.498h-5.03c-0.275,0-0.498,0.223-0.498,0.498
			C14.969,14.745,15.191,14.968,15.467,14.968z M28.497,30.003h-13.03c-0.275,0-0.498,0.224-0.498,0.499
			c0,0.274,0.223,0.498,0.498,0.498h13.03c0.275,0,0.498-0.223,0.498-0.498C28.995,30.227,28.772,30.003,28.497,30.003z
			 M14.969,21.501c0,0.275,0.223,0.498,0.498,0.498h13.03c0.275,0,0.498-0.223,0.498-0.498s-0.223-0.498-0.498-0.498h-13.03
			C15.191,21.003,14.969,21.227,14.969,21.501z M15.467,24h12.968c0.275,0,0.498-0.223,0.498-0.498c0-0.275-0.223-0.498-0.498-0.498
			H15.467c-0.275,0-0.498,0.223-0.498,0.498C14.969,23.777,15.191,24,15.467,24z M30.991,10.997V0.003H0v38.95h4.01v4.041h30.002
			V14.069L30.991,10.997z M31.01,13.983h-7.001V6.92L31.01,13.983z M4.01,37.024H2.012V1.963H29.01v7.344l-5.117-5.326H4.01V37.024z
			 M31.988,41.013H6.001v-2.061V6.004h15.985v9.971h10.002V41.013z M11.482,10.97c-1.382,0-2.502,1.12-2.502,2.502
			c0,1.381,1.12,2.502,2.502,2.502s2.502-1.121,2.502-2.502C13.984,12.089,12.864,10.97,11.482,10.97z M11.523,14.708
			c-0.687,0-1.242-0.557-1.242-1.242c0-0.686,0.556-1.242,1.242-1.242c0.686,0,1.242,0.556,1.242,1.242
			C12.766,14.151,12.209,14.708,11.523,14.708z M28.497,31.972h-13.03c-0.275,0-0.498,0.224-0.498,0.499
			c0,0.275,0.223,0.498,0.498,0.498h13.03c0.275,0,0.498-0.223,0.498-0.498C28.995,32.195,28.772,31.972,28.497,31.972z
			 M21.497,33.972h-6.03c-0.275,0-0.498,0.223-0.498,0.498c0,0.276,0.223,0.499,0.498,0.499h6.03c0.275,0,0.498-0.223,0.498-0.499
			C21.995,34.195,21.772,33.972,21.497,33.972z"/>
	</g>
</g>
<rect id="_x3C_Фрагмент_x3E__1_" fill-rule="evenodd" clip-rule="evenodd" fill="none" width="34" height="43"/>
</svg>
