<?xml version="1.0" encoding="utf-8"?>
<!-- Generator: Adobe Illustrator 15.1.0, SVG Export Plug-In . SVG Version: 6.00 Build 0)  -->
<!DOCTYPE svg PUBLIC "-//W3C//DTD SVG 1.1//EN" "http://www.w3.org/Graphics/SVG/1.1/DTD/svg11.dtd">
<svg version="1.1" id="Слой_1" xmlns="http://www.w3.org/2000/svg" xmlns:xlink="http://www.w3.org/1999/xlink" x="0px" y="0px"
	 width="31.968px" height="47.133px" viewBox="0 0 31.968 47.133" enable-background="new 0 0 31.968 47.133" xml:space="preserve">
<g>
	<g>
		<path d="M29.615,3.155h-9.847l1.422-1.893c0.265-0.349,0.19-0.842-0.157-1.104c-0.349-0.261-0.845-0.189-1.104,0.158l-2.136,2.837
			h-3.856l-1.362-2.717c-0.196-0.39-0.671-0.546-1.061-0.353c-0.391,0.194-0.548,0.668-0.353,1.058l1.008,2.012H2.387
			C1.08,3.155,0.017,4.217,0.017,5.52v39.25c0,1.305,1.063,2.363,2.37,2.363h27.228c1.307,0,2.37-1.063,2.37-2.363V5.52
			C31.984,4.217,30.921,3.155,29.615,3.155z M14.538,8.142l0.598,1.195c0.137,0.271,0.41,0.428,0.694,0.428
			c0.116,0,0.234-0.025,0.345-0.081c0.383-0.191,0.538-0.655,0.347-1.036l-0.597-1.191c0.809,0.05,1.454,0.716,1.454,1.535
			c0,0.853-0.694,1.544-1.549,1.544c-0.854,0-1.549-0.692-1.549-1.544C14.281,8.678,14.375,8.387,14.538,8.142z M30.03,44.366
			c0,0.426-0.348,0.77-0.771,0.77H2.792c-0.428,0-0.774-0.348-0.774-0.77V5.902c0-0.427,0.347-0.771,0.774-0.771h10.236l0.773,1.544
			c-0.65,0.566-1.069,1.391-1.069,2.317c0,1.704,1.389,3.09,3.097,3.09c1.709,0,3.098-1.386,3.098-3.09
			c0-1.705-1.389-3.091-3.098-3.091c-0.223,0-0.438,0.025-0.646,0.07l-0.424-0.842h14.497c0.428,0,0.774,0.346,0.774,0.771V44.366
			L30.03,44.366z M8.515,34.141h14.953c0.281,0,0.508-0.229,0.508-0.506c0-0.275-0.227-0.506-0.508-0.506H8.515
			c-0.281,0-0.508,0.229-0.508,0.506C8.007,33.917,8.233,34.141,8.515,34.141z M23.485,36.1H8.537c-0.293,0-0.529,0.236-0.529,0.529
			s0.236,0.527,0.529,0.527h14.949c0.292,0,0.528-0.232,0.528-0.523C24.014,36.34,23.777,36.1,23.485,36.1z M23.457,39.116H8.54
			c-0.295,0-0.533,0.235-0.533,0.532c0,0.293,0.238,0.528,0.533,0.528h14.917c0.295,0,0.533-0.235,0.533-0.528
			C23.99,39.354,23.751,39.116,23.457,39.116z M20.791,30.172h3.188V14.2H8.011v15.97h3.195L20.791,30.172L20.791,30.172z
			 M12.458,29.188c0-1.904,1.552-3.453,3.461-3.453c1.909,0,3.461,1.549,3.461,3.453H12.458z M13.324,21.416
			c0-1.428,1.164-2.589,2.596-2.589s2.596,1.162,2.596,2.589c0,1.431-1.164,2.592-2.596,2.592S13.324,22.844,13.324,21.416z
			 M9.015,29.167V15.173h13.996v13.992l-1.9,0.022c0-1.873-1.002-3.515-2.498-4.424c0.987-0.792,1.633-1.989,1.633-3.354
			c0-2.38-1.938-4.316-4.326-4.316c-2.386,0-4.327,1.938-4.327,4.316c0,1.358,0.646,2.562,1.634,3.354
			c-1.496,0.909-2.499,2.551-2.499,4.424L9.015,29.167z"/>
	</g>
</g>
<rect id="_x3C_Фрагмент_x3E__1_" y="3" fill="none" width="32" height="48"/>
</svg>
